<svg id="Layer_1" data-name="Layer 1" xmlns="http://www.w3.org/2000/svg" viewBox="0 0 300 300"><defs><style>.cls-1{fill:#ff0013;}</style></defs><path d="M32.7,121.87H45.94c.83,7.76,5.57,11.69,13.52,11.69,7.31,0,10.23-2.93,10.23-7.22,0-13.06-35.62-4.66-35.62-29.32,0-11.59,9.22-18.35,23.2-18.35,14.61,0,24.2,8,25,20.82H69.14c-.73-6.3-4.93-9.86-11.78-9.86-6,0-9.86,2.46-9.86,6.94,0,12.51,35.52,4.66,35.52,29,0,10.87-7.58,19-24.38,19C42.75,144.61,33.43,136.48,32.7,121.87Z"/><path d="M92.18,79.67H119.3c14.16,0,22.74,8.5,22.74,20.73,0,12.42-8.58,21.1-22.74,21.1H105.51v22.1H92.18Zm26.3,29.77c6.3,0,10.23-3.74,10.23-9s-3.93-8.76-10.23-8.76h-13v17.71Z"/><path d="M153.25,79.67H199V91.73H166.59v13.79h29.59v11.87H166.59v14.06h32.88V143.6H153.25Z"/><path d="M203.92,111.64c0-19.64,13-33,32.51-33,16.9,0,28.31,9.68,30.87,25.48H253.78c-2.1-8.4-8-13.43-17.35-13.43-11.42,0-19.09,8.41-19.09,20.92s7.67,20.82,19,20.82c9.59,0,15.71-5.3,17.44-14.25H267.3c-2.19,16.26-13.88,26.4-30.87,26.4C216.89,144.61,203.92,131.18,203.92,111.64Z"/><path d="M52.15,169.55H32.7V157.4H85v12.15H65.49v51.78H52.15Z"/><path d="M97,157.4h28c13.79,0,22.1,8.22,22.1,20,0,9.41-5.57,16.63-14.61,19.18l15.62,24.75H133l-14.53-23.65h-8.12v23.65H97Zm27.31,28.22c5.94,0,9.5-3.19,9.5-8.13,0-4.65-3-8-9-8H110.32v16.16Z"/><path d="M193,157.4H179.53l-25.12,63.92h13.88l4-10.13,1.33-3.46,4.57-11.88,1.68-4.38,6.35-16.35,5.53,14.26.13.31,2.38,6.16h0l4.57,11.88h0l5.3,13.59h14Z"/><rect class="cls-1" x="224.21" y="207.13" width="13.33" height="13.33"/><path d="M284.12,15.88V284.12H15.88V15.88H284.12M300,0H0V300H300V0Z"/></svg>